<svg width="85" height="70" viewBox="0 0 85 70" fill="none" xmlns="http://www.w3.org/2000/svg">
<path d="M2 51.5L23.4297 28.8004C24.2976 27.8811 25.3279 27.1518 26.4618 26.6543C27.5958 26.1568 28.8111 25.9007 30.0385 25.9007C31.2658 25.9007 32.4812 26.1568 33.6151 26.6543C34.749 27.1518 35.7794 27.8811 36.6472 28.8004L58.0769 51.5M51.8462 44.9L57.6989 38.7004C58.5668 37.7811 59.5971 37.0519 60.731 36.5543C61.865 36.0568 63.0803 35.8007 64.3077 35.8007C65.5351 35.8007 66.7504 36.0568 67.8843 36.5543C69.0183 37.0519 70.0486 37.7811 70.9165 38.7004L83 51.5M8.23077 68H76.7692C78.4217 68 80.0066 67.3046 81.175 66.0669C82.3435 64.8292 83 63.1504 83 61.4V8.6C83 6.84957 82.3435 5.17083 81.175 3.93309C80.0066 2.69535 78.4217 2 76.7692 2H8.23077C6.57827 2 4.99345 2.69535 3.82495 3.93309C2.65645 5.17083 2 6.84957 2 8.6V61.4C2 63.1504 2.65645 64.8292 3.82495 66.0669C4.99345 67.3046 6.57827 68 8.23077 68ZM51.8462 18.5H51.8794V18.5352H51.8462V18.5ZM53.4038 18.5C53.4038 18.9376 53.2397 19.3573 52.9476 19.6667C52.6555 19.9762 52.2593 20.15 51.8462 20.15C51.433 20.15 51.0368 19.9762 50.7447 19.6667C50.4526 19.3573 50.2885 18.9376 50.2885 18.5C50.2885 18.0624 50.4526 17.6427 50.7447 17.3333C51.0368 17.0238 51.433 16.85 51.8462 16.85C52.2593 16.85 52.6555 17.0238 52.9476 17.3333C53.2397 17.6427 53.4038 18.0624 53.4038 18.5Z" stroke="#797979" stroke-width="3" stroke-linecap="round" stroke-linejoin="round"/>
</svg>
