<svg width="100" height="90" viewBox="0 0 100 90" fill="none" xmlns="http://www.w3.org/2000/svg">
<path fill-rule="evenodd" clip-rule="evenodd" d="M71.0009 21C71.0009 32.598 61.5988 42 50.0009 42C38.4029 42 29.0009 32.598 29.0009 21C29.0009 9.40202 38.4029 0 50.0009 0C61.5988 0 71.0009 9.40202 71.0009 21ZM64.0009 21C64.0009 28.732 57.7328 35 50.0009 35C42.2689 35 36.0009 28.732 36.0009 21C36.0009 13.268 42.2689 7 50.0009 7C57.7328 7 64.0009 13.268 64.0009 21Z" fill="#898989"/>
<path d="M50.0009 52.5C27.3405 52.5 8.03331 65.8994 0.678711 84.6721C2.47034 86.4512 4.3577 88.1341 6.33236 89.7122C11.809 72.4769 28.9894 59.5 50.0009 59.5C71.0124 59.5 88.1928 72.4769 93.6694 89.7122C95.644 88.1341 97.5314 86.4513 99.323 84.6722C91.9684 65.8995 72.6612 52.5 50.0009 52.5Z" fill="#898989"/>
</svg>
