<svg width="21" height="20" viewBox="0 0 21 20" fill="none" xmlns="http://www.w3.org/2000/svg">
<path d="M11.1849 19V15.7441L16.4191 9.92059C16.5612 9.76177 16.7191 9.64706 16.8928 9.57647C17.0664 9.50588 17.2401 9.47059 17.4138 9.47059C17.6033 9.47059 17.7849 9.51047 17.9585 9.59024C18.1322 9.67 18.2901 9.78894 18.4322 9.94706L19.3085 10.9265C19.4349 11.0853 19.5337 11.2618 19.6051 11.4559C19.6764 11.65 19.7118 11.8441 19.7112 12.0382C19.7105 12.2324 19.679 12.4311 19.6164 12.6344C19.5539 12.8376 19.4513 13.0184 19.3085 13.1765L14.098 19H11.1849ZM1.71118 17.9412V14.9765C1.71118 14.3765 1.8495 13.8252 2.12613 13.3226C2.40276 12.82 2.76971 12.436 3.22697 12.1706C4.20592 11.6235 5.20065 11.2134 6.21118 10.9402C7.22171 10.6671 8.24802 10.5301 9.29013 10.5294C9.87434 10.5294 10.4507 10.5693 11.0191 10.6491C11.5875 10.7288 12.1559 10.8566 12.7243 11.0324L9.29013 14.8706V17.9412H1.71118ZM17.4138 13.0706L18.2901 12.0382L17.4138 11.0588L16.5138 12.0647L17.4138 13.0706ZM9.29013 9.47059C8.24802 9.47059 7.35592 9.05588 6.61381 8.22647C5.87171 7.39706 5.50065 6.4 5.50065 5.23529C5.50065 4.07059 5.87171 3.07353 6.61381 2.24412C7.35592 1.41471 8.24802 1 9.29013 1C10.3322 1 11.2243 1.41471 11.9664 2.24412C12.7085 3.07353 13.0796 4.07059 13.0796 5.23529C13.0796 6.4 12.7085 7.39706 11.9664 8.22647C11.2243 9.05588 10.3322 9.47059 9.29013 9.47059Z" stroke="#898989" stroke-width="1.66667" stroke-linecap="round" stroke-linejoin="round"/>
</svg>
