<svg width="19" height="22" viewBox="0 0 19 22" fill="none" xmlns="http://www.w3.org/2000/svg">
<path d="M6.37745 21V7.77501C4.91703 7.37501 3.74965 6.53767 2.87532 5.26301C2.00099 3.98834 1.56351 2.56734 1.56287 1.00001H3.4887C3.4887 2.38334 3.91816 3.56267 4.77708 4.53801C5.636 5.51334 6.73116 6.00067 8.06255 6.00001H10.4698C10.9513 6.00001 11.4007 6.09167 11.8179 6.27501C12.2352 6.45834 12.6123 6.72501 12.9494 7.07501L17.3066 11.6L15.9585 13L12.155 9.05001V21H10.2291V15H8.30328V21H6.37745ZM9.2662 5.00001C8.7366 5.00001 8.28338 4.80434 7.90656 4.41301C7.52974 4.02167 7.34101 3.55067 7.34037 3.00001C7.33972 2.44934 7.52846 1.97867 7.90656 1.58801C8.28467 1.19734 8.73788 1.00134 9.2662 1.00001C9.79452 0.998673 10.2481 1.19467 10.6268 1.58801C11.0055 1.98134 11.194 2.45201 11.192 3.00001C11.1901 3.54801 11.0017 4.01901 10.6268 4.41301C10.2519 4.80701 9.79837 5.00267 9.2662 5.00001Z" stroke="#898989" stroke-width="1.66667" stroke-linecap="round" stroke-linejoin="round"/>
</svg>
