<svg width="20" height="18" viewBox="0 0 20 18" fill="none" xmlns="http://www.w3.org/2000/svg">
<path d="M3.14441 4.5C3.14441 4.04037 3.23494 3.58525 3.41083 3.16061C3.58672 2.73597 3.84453 2.35013 4.16954 2.02513C4.49454 1.70012 4.88038 1.44231 5.30502 1.26642C5.72966 1.09053 6.18478 1 6.64441 1C7.10404 1 7.55916 1.09053 7.9838 1.26642C8.40844 1.44231 8.79428 1.70012 9.11928 2.02513C9.44429 2.35013 9.7021 2.73597 9.87799 3.16061C10.0539 3.58525 10.1444 4.04037 10.1444 4.5C10.1444 4.95963 10.0539 5.41475 9.87799 5.83939C9.7021 6.26403 9.44429 6.64987 9.11928 6.97487C8.79428 7.29988 8.40844 7.55769 7.9838 7.73358C7.55916 7.90947 7.10404 8 6.64441 8C6.18478 8 5.72966 7.90947 5.30502 7.73358C4.88038 7.55769 4.49454 7.29988 4.16954 6.97487C3.84453 6.64987 3.58672 6.26403 3.41083 5.83939C3.23494 5.41475 3.14441 4.95963 3.14441 4.5ZM1.14441 15C1.14441 11.9625 3.60691 9.5 6.64441 9.5C9.68191 9.5 12.1444 11.9625 12.1444 15V15.1875C12.1444 15.9125 11.5569 16.5 10.8319 16.5H2.45691C1.73191 16.5 1.14441 15.9125 1.14441 15.1875V15ZM14.6444 2.5C15.4401 2.5 16.2031 2.81607 16.7657 3.37868C17.3283 3.94129 17.6444 4.70435 17.6444 5.5C17.6444 6.29565 17.3283 7.05871 16.7657 7.62132C16.2031 8.18393 15.4401 8.5 14.6444 8.5C13.8488 8.5 13.0857 8.18393 12.5231 7.62132C11.9605 7.05871 11.6444 6.29565 11.6444 5.5C11.6444 4.70435 11.9605 3.94129 12.5231 3.37868C13.0857 2.81607 13.8488 2.5 14.6444 2.5ZM14.6444 10C17.1288 10 19.1444 12.0156 19.1444 14.5V15.2C19.1444 15.9187 18.5632 16.5 17.8444 16.5H13.3194C13.5257 16.1094 13.6444 15.6625 13.6444 15.1875V15C13.6444 13.3906 13.1007 11.9094 12.1913 10.7281C12.8975 10.2687 13.7413 10 14.6444 10Z" stroke="#898989" stroke-width="1.66667" stroke-linecap="round" stroke-linejoin="round"/>
</svg>
