<svg width="22" height="20" viewBox="0 0 22 20" fill="none" xmlns="http://www.w3.org/2000/svg">
<path d="M2.9149 6.223C1.97935 7.32718 1.28271 8.6132 0.868896 10C2.1609 14.338 6.1789 17.5 10.9349 17.5C11.9279 17.5 12.8879 17.362 13.7979 17.105M5.1629 4.228C6.87554 3.09786 8.88298 2.49688 10.9349 2.5C15.6909 2.5 19.7079 5.662 20.9999 9.998C20.2919 12.3673 18.7719 14.4116 16.7069 15.772M5.1629 4.228L1.9349 1M5.1629 4.228L8.8129 7.878M16.7069 15.772L19.9349 19M16.7069 15.772L13.0569 12.122C13.3355 11.8434 13.5565 11.5127 13.7073 11.1486C13.858 10.7846 13.9357 10.3945 13.9357 10.0005C13.9357 9.6065 13.858 9.21636 13.7073 8.85235C13.5565 8.48834 13.3355 8.1576 13.0569 7.879C12.7783 7.6004 12.4476 7.3794 12.0835 7.22863C11.7195 7.07785 11.3294 7.00025 10.9354 7.00025C10.5414 7.00025 10.1513 7.07785 9.78725 7.22863C9.42324 7.3794 9.0925 7.6004 8.8139 7.879M13.0559 12.121L8.8149 7.88" stroke="#388E3C" stroke-width="1.5" stroke-linecap="round" stroke-linejoin="round"/>
</svg>
