<svg width="24" height="25" viewBox="0 0 24 25" fill="none" xmlns="http://www.w3.org/2000/svg">
<path d="M10.1644 21.5L9.81589 18.608C9.50844 18.5113 9.17627 18.36 8.81939 18.154C8.46187 17.9473 8.15795 17.726 7.90762 17.49L5.33887 18.625L3.54324 15.375L5.76346 13.636C5.73458 13.456 5.71115 13.27 5.69318 13.078C5.67392 12.886 5.66429 12.6997 5.66429 12.519C5.66429 12.351 5.67392 12.1743 5.69318 11.989C5.71115 11.8037 5.73458 11.595 5.76346 11.363L3.54324 9.626L5.33887 6.414L7.88836 7.53C8.17592 7.28133 8.48723 7.057 8.82228 6.857C9.15605 6.657 9.48116 6.50233 9.7976 6.393L10.1635 3.5H13.7566L14.1042 6.412C14.4733 6.54667 14.7993 6.701 15.0824 6.875C15.3655 7.049 15.6572 7.267 15.9576 7.529L18.5812 6.414L20.3769 9.625L18.0835 11.421C18.1361 11.6277 18.1656 11.8173 18.172 11.99C18.1785 12.1627 18.1817 12.3327 18.1817 12.5C18.1817 12.6553 18.1752 12.819 18.1624 12.991C18.1502 13.1637 18.122 13.3723 18.0777 13.617L20.3345 15.375L18.5389 18.625L15.9576 17.471C15.6578 17.733 15.3562 17.9573 15.0526 18.144C14.749 18.3307 14.4328 18.479 14.1042 18.589L13.7566 21.5H10.1644ZM11.9341 15C12.6054 15 13.1745 14.7577 13.6411 14.273C14.1077 13.7883 14.3411 13.1973 14.3411 12.5C14.3411 11.8027 14.1077 11.2117 13.6411 10.727C13.1745 10.2423 12.6054 10 11.9341 10C11.2588 10 10.6888 10.2423 10.2241 10.727C9.75941 11.2117 9.52705 11.8027 9.52705 12.5C9.52705 13.1973 9.75941 13.7883 10.2241 14.273C10.6888 14.7577 11.2588 15 11.9341 15Z" stroke="#898989" stroke-width="1.66667" stroke-linecap="round" stroke-linejoin="round"/>
</svg>
