<svg width="20" height="21" viewBox="0 0 20 21" fill="none" xmlns="http://www.w3.org/2000/svg">
<g clip-path="url(#clip0_167_164)">
<path d="M8.32332 18.125H12.1745C12.1745 19.225 11.308 20.125 10.2489 20.125C9.18984 20.125 8.32332 19.225 8.32332 18.125ZM18.9141 16.125V17.125H1.58371V16.125L3.50931 14.125V8.125C3.50931 5.025 5.43491 2.325 8.32332 1.425V1.125C8.32332 0.025 9.18984 -0.875 10.2489 -0.875C11.308 -0.875 12.1745 0.025 12.1745 1.125V1.425C15.0629 2.325 16.9885 5.025 16.9885 8.125V14.125L18.9141 16.125ZM15.0629 8.125C15.0629 5.325 12.9448 3.125 10.2489 3.125C7.55308 3.125 5.43491 5.325 5.43491 8.125V15.125H15.0629V8.125Z" fill="#898989"/>
</g>
<defs>
<clipPath id="clip0_167_164">
<rect width="19.256" height="20" fill="white" transform="translate(0.620911 0.125)"/>
</clipPath>
</defs>
</svg>
